<svg xmlns="http://www.w3.org/2000/svg" enable-background="new 0 0 64 64"><path d="M39.3 41.3v-3.8c0-1.2.5-2.3 1.5-3.1 3.8-3 5.7-7.7 5.1-12.5C45.2 15.5 40 10.3 33.6 9.6c-.5-.1-1.1-.1-1.6-.1-7.7 0-14 6.3-14 14 0 4.2 1.9 8.2 5.2 10.9 1 .8 1.5 1.9 1.5 3.1v3.8c0 .6.4 1 1 1h12.6C38.9 42.3 39.3 41.9 39.3 41.3zM37.3 37.5v2.8H33v-7.2l6.9-8.7c.3-.4.3-1.1-.2-1.4s-1.1-.3-1.4.2l-6.4 8-6.4-8c-.3-.4-1-.5-1.4-.2-.4.3-.5 1-.2 1.4l6.9 8.7v7.2h-4.3v-2.8c0-1.8-.8-3.5-2.3-4.7-2.8-2.3-4.4-5.7-4.4-9.3 0-6.6 5.4-12 12-12 .5 0 .9 0 1.4.1 5.5.6 9.9 5 10.6 10.5.5 4.1-1.2 8.1-4.4 10.7C38.1 34 37.3 35.7 37.3 37.5zM26 45c-.6 0-1 .4-1 1v2.1c0 3.8 2.7 6.9 6.1 6.9h1.8c3.4 0 6.1-3.1 6.1-6.9V46c0-.6-.4-1-1-1H26zM37 48.1c0 2.3-1.6 4.9-4.1 4.9h-1.8c-2.5 0-4.1-2.5-4.1-4.9V47h10V48.1z"/></svg>